<?xml version="1.0" encoding="utf-8"?>
<!-- Generator: Adobe Illustrator 26.0.2, SVG Export Plug-In . SVG Version: 6.00 Build 0)  -->
<svg version="1.1" id="圖層_1" xmlns="http://www.w3.org/2000/svg" xmlns:xlink="http://www.w3.org/1999/xlink" x="0px" y="0px"
	 viewBox="0 0 242 49" style="enable-background:new 0 0 242 49;" xml:space="preserve">
<style type="text/css">
	.st0{fill-rule:evenodd;clip-rule:evenodd;fill:#FFFFFF;}
	.st1{fill:#FFFFFF;}
	.st2{fill-rule:evenodd;clip-rule:evenodd;fill:#E83434;}
	.st3{fill:#E83434;}
</style>
<g>
	<polygon class="st0" points="1.4,6.6 1.9,45.2 13.4,44.1 17.8,35.2 26.6,35.2 31.2,44 40,44 42.2,21 33.3,8.8 31.4,18.8 28.9,21.6 
		27.8,19.6 17.3,20.5 13.4,8.8 	"/>
	<path class="st0" d="M74.8,42.6l0.6,1.8c0-0.8,0-1.5,0.1-2.3h-4.9v0.5h-2.3V30.8h2c0.2-0.6,0.4-1.1,0.5-1.5l2.9,0.1L73,30.8h4v6.8
		h-6.3v0.6h7.6v1.7h-7.6v0.6h7.2c-0.1,2.2-0.2,3.9-0.2,5.1c-0.2,1.9-1,2.9-2.3,2.9h-2.2c-0.1-0.7-0.3-1.4-0.5-2.1
		c0.6,0,1.2,0.1,1.9,0.1c0.5,0,0.9-0.4,0.9-1.2l-0.9,0.2c-0.2-0.9-0.5-1.7-0.7-2.5C73.9,43,74.8,42.6,74.8,42.6z M67,47.6l1.8,0.3
		c0.2-1.4,0.4-3,0.6-4.8l-1.5-0.2c-0.1-0.6-0.1-1.3-0.2-2.1c-0.5,0.2-0.9,0.3-1.3,0.5v-7.2h1.5v-2.2H63v2.2h1.2V42
		c-0.6,0.2-1.3,0.4-1.8,0.6l0.8,2.3c1.4-0.6,2.9-1.2,4.6-1.8C67.5,44.8,67.3,46.3,67,47.6L67,47.6z M60.4,39.8
		c0.7,0.3,1.4,0.6,2.1,0.9c-0.5,2.9-0.8,5.5-1.1,7.7c-0.9-0.3-1.6-0.6-2.3-0.8C59.5,45.3,60,42.7,60.4,39.8z M60.5,34.7
		c1.2,1.1,2,1.9,2.5,2.4l-1.9,1.8c-0.5-0.7-1.3-1.5-2.2-2.5C58.9,36.4,60.5,34.7,60.5,34.7z M60.7,29.5c0.8,0.7,1.5,1.5,2.2,2.3
		L61,33.4c-0.4-0.4-1-1.2-2-2.4C59,31,60.7,29.5,60.7,29.5z M71.5,43l-1.4,0.1c0.1,1.4,0.1,2.8,0,4.2l1.6-0.1
		C71.7,46.1,71.6,44.6,71.5,43z M74.6,35.9v-1.1h-4.1v1.1H74.6z M74.6,32.4h-4.1v1.1h4.1V32.4z M72,43.1c0.1,0.8,0.3,1.8,0.4,3
		l1.4-0.2c-0.1-1-0.3-2-0.5-3L72,43.1z M94.2,38.9H96l0.3-3.1l-0.9,0.9c-0.5-0.7-1-1.4-1.6-2c1.6-1.6,2.9-3.4,3.9-5.4l2.7,0.3
		c-0.2,0.4-0.4,0.7-0.6,1.1h8.9v2.1H98.5c-0.3,0.5-0.6,0.9-1,1.3h10l-0.1,4.7h1.5v2h-1.6l-0.1,2.7h1.5v2h-1.5c0.1,0.7-0.2,1.4-0.6,2
		c-0.4,0.4-1,0.7-1.6,0.7c-0.7,0.1-2.1,0.1-4.2,0.2c-0.2-0.7-0.4-1.4-0.6-2c1.2,0,2.2,0.1,2.9,0.1c0.3,0,0.7,0,1-0.1
		s0.4-0.3,0.5-0.8h-9.5l0.4-4.6h-1.6v-2.1L94.2,38.9z M103.6,37.7l-1.3,1.2h2.6v-2.7h-3.5C102.2,36.6,102.9,37.1,103.6,37.7z
		 M99.7,37.3l1.2-1.1h-2.1l-0.3,2.7h3.3C101.8,38.9,99.7,37.3,99.7,37.3z M99.6,42l1.2-1.1h-2.6l-0.3,2.7h3.6
		C100.9,43,100.3,42.5,99.6,42z M103.6,42.4l-1.2,1.2h2.4l0.1-2.7h-3.5C101.9,41.2,102.6,41.7,103.6,42.4z M92,29.4l-1.7,1.8
		c1.1,0.9,2.1,1.8,3,2.7l1.8-2C94,31,93,30.1,92,29.4z M91.4,34.5l-1.6,1.8c1.5,1.4,2.5,2.3,2.9,2.7l1.7-2.1L91.4,34.5z M92.1,40.3
		c-0.6,2.7-1.2,5.2-1.9,7.3c0.9,0.2,1.7,0.5,2.6,0.8c0.6-2.6,1.2-5,1.8-7.2C93.7,41,92.9,40.7,92.1,40.3z M128.1,41.8l6.3-0.6V29.4
		h2.7V41l2.6-0.2l0.2,2.5l-2.9,0.3v5h-2.7v-4.8l-6,0.5L128.1,41.8L128.1,41.8z M120.6,42.4c0.4,1,0.7,2.1,0.9,3.1
		c0.8-1.2,1.5-2.4,2.1-3.6v6.6h2.5v-8.4c0.5,0.5,1,1.1,1.7,1.9l1.6-1.5c-0.8-0.8-1.6-1.6-2.4-2.3l-0.9,0.9v-1.7h2.5v-2.5h-2.5v-2.4
		c0.9-0.1,1.9-0.2,2.8-0.4l-0.7-2.3c-2.3,0.3-4.7,0.6-7.4,0.8c0.2,0.8,0.3,1.5,0.4,2.3l2.3-0.2v2.2h-2.8v2.5h2.7
		C122.8,39.2,121.9,40.9,120.6,42.4z M131,30.8l-1.6,1.6c1.1,0.9,2.1,1.9,3.1,2.9l1.8-1.8C133.3,32.5,132.2,31.6,131,30.8z
		 M130.3,35.7l-1.6,1.7c1.1,0.8,2.2,1.8,3.1,2.8l1.8-1.8C132.6,37.4,131.5,36.5,130.3,35.7z M170.4,34.5h-4.7v2.1h4.2v2.3
		c-0.8,1.9-2,3.6-3.5,5c1.4,0.8,2.9,1.4,4.4,1.8c-0.6,1.1-1.2,2-1.6,2.6c-1.8-0.7-3.5-1.6-5-2.7c-1.7,1.2-3.5,2.1-5.4,2.8
		c-0.4-0.7-0.9-1.6-1.5-2.5c1.6-0.5,3.2-1.2,4.7-2.1c-1.1-1-2.1-2.2-3-3.5l2.2-1.3c0.8,1.2,1.8,2.3,2.9,3.3c1.1-0.9,2.1-2.1,2.7-3.4
		h-8.3v-2.4h4.3v-2.1h-4.3v-2.3h4.3v-2.8h2.8v2.8h4.7v2.4L170.4,34.5z M151.8,32.8v2.5h2.2v3.4l-2.4,0.4l0.3,2.8l2.1-0.5v3.5
		c0,0.3,0,0.5-0.2,0.7c-0.2,0.1-0.5,0.2-0.7,0.2c-0.4,0-0.9,0-1.3-0.1c0.3,1.1,0.5,2,0.7,2.6c1.8,0,3-0.2,3.4-0.6
		c0.4-0.5,0.6-1.2,0.6-1.9v-5.1l1.7-0.4c0-0.6,0-1.4,0.1-2.5l-1.7,0.4v-2.9h1.6v-2.5h-1.6v-3.4h-2.5v3.4L151.8,32.8z M193.3,29.2
		c0.3,0.6,0.7,1.3,1,1.9h6.3v1.7h-6.5v1h5.8v1.6h-5.8v1h5.8V38h-5.8v1h6.7v1.7H187v0.7h-2.6v-5.6c-0.4,0.3-0.7,0.7-1.1,1
		c-0.3-1-0.7-1.9-1.1-2.8c1.6-1.2,2.9-2.8,3.8-4.6l2.7,0.6c-0.2,0.4-0.4,0.8-0.7,1.2h3.3c-0.2-0.5-0.5-1-0.7-1.5L193.3,29.2
		L193.3,29.2z M187.1,32.9v1h4.5v-1H187.1z M187.1,36.4h4.5v-1h-4.5V36.4z M187.1,39h4.5v-1h-4.5V39L187.1,39z M190.7,41.2v0.9h-7.9
		V44h5.5c-1.9,1-3.9,1.8-6,2.2c0.5,0.7,0.9,1.4,1.3,2.2c2.6-0.8,4.9-2,7-3.7v3.8h2.6v-4c2,1.8,4.4,3.1,7,3.7
		c0.4-0.7,0.8-1.4,1.4-2.3c-2.1-0.3-4.1-1-6-2h5.7V42h-8.1v-0.9L190.7,41.2L190.7,41.2z M214.2,48.5V30.1h17.5v18.3h-2.5v-0.6h-12.6
		v0.6L214.2,48.5L214.2,48.5z M229.2,32.1h-12.6v13.8h12.6V32.1L229.2,32.1z M217.2,40.2l0.2,1.2c3.4-0.1,6.7-0.2,9.9-0.2
		c0.2,0.2,0.4,0.4,0.6,0.6l1.3-0.9c-0.5-0.5-1-1-1.6-1.5h0.6v-4.5H224v-0.6h4.5V33H224v-0.5h-2V33h-4.5v1.3h4.5v0.6h-4.2v5h2v-0.5
		h2.2v0.8L217.2,40.2z M217.2,41.9v1.4h1.9l-0.7,0.6c0.7,0.5,1.4,1,2.1,1.6l1.3-1.2c-0.5-0.3-1-0.6-1.5-1h4.6v0.2
		c0,0.4-0.3,0.6-0.8,0.6h-1.8c0.2,0.7,0.3,1.2,0.4,1.5c0.8,0,1.7,0,2.5-0.1c1.2-0.1,1.8-0.7,1.8-1.7v-0.5h1.7V42H227v-0.5h-2V42
		L217.2,41.9L217.2,41.9z M226.2,40.1l-0.4-0.4l0.7-0.4h-2.6v0.8L226.2,40.1z M226.1,38.3v-0.7h-2.2v0.7H226.1z M219.8,38.3h2.2
		v-0.7h-2.2V38.3L219.8,38.3z M226.1,36h-2.2v0.6h2.2V36L226.1,36z M219.8,36.6h2.2V36h-2.2V36.6z"/>
	<path class="st1" d="M132.8,10.4v6c0,3.6,2.8,6.5,6.4,6.5h13.5v-4h-12.8c-0.3,0-0.6-0.2-0.6-0.6l0,0V9c0-0.4,0.2-0.7,0.6-0.7h12.8
		V4.1h-13.5c-3.5,0-6.4,2.7-6.4,6.2C132.8,10.3,132.8,10.4,132.8,10.4z"/>
	<path class="st1" d="M131.3,4h-7.6l-3,3.5c-0.8,0.8-2.1,0.8-2.9,0l0,0l-3-3.5h-7.5l7,8c0.8,0.8,0.8,2.1,0,2.8c0,0-0.1,0-0.1,0.1
		l-6.9,8.1h7.5l3-3.5c0.8-0.7,2.1-0.7,2.9,0.1l3,3.5h7.6l-7-8.1c-0.8-0.8-0.8-2.1,0-2.9l0,0L131.3,4z"/>
	<path class="st1" d="M99.1,4h-10C85.2,4,82,6.9,82,10.5v6c0,3.6,3.2,6.5,7.1,6.5h9.8c3.5,0.1,6.5-2.7,6.6-6.2c0-0.1,0-0.2,0-0.3v-6
		c0.1-3.5-2.5-6.4-6-6.5C99.4,4,99.2,4,99.1,4z M98.9,18.2c0,0.4-0.3,0.6-0.7,0.6h-9.1c-0.4,0-0.7-0.2-0.7-0.6V8.8
		c0-0.4,0.3-0.7,0.7-0.7l0,0h9.2c0.4,0,0.7,0.2,0.7,0.6L98.9,18.2z"/>
	<path class="st1" d="M59.3,10.4V23h6.4v-5.9c0-0.8,0.6-1.5,1.3-1.5c0.1,0,0.1,0,0.2,0h11v-3.3H66.3c-0.4,0-0.6-0.3-0.6-0.7V8.9
		c0-0.4,0.2-0.7,0.6-0.7h12.9V4H65.3C61.9,4.1,59.2,6.9,59.3,10.4z"/>
	<path class="st1" d="M199,4h-17v19h6.4V8.8c0-0.3,0.2-0.6,0.6-0.6l0,0h9.4c0.3,0,0.6,0.3,0.6,0.6V23h6.4V10.4
		C205.2,6.9,202.5,4.1,199,4z"/>
	<path class="st1" d="M225.5,3.8h-17v19h6.4v-14c0-0.3,0.3-0.6,0.6-0.6h9.4c0.3,0,0.6,0.3,0.6,0.6V23h6.4V10.2
		C231.8,6.8,229,3.9,225.5,3.8z"/>
	<path class="st1" d="M172.6,4h-10c-3.9,0-7.1,2.9-7.1,6.5v6c0,3.6,3.2,6.5,7.1,6.5h9.8c3.5,0.1,6.5-2.7,6.6-6.2c0-0.1,0-0.2,0-0.3
		v-6c0.1-3.4-2.5-6.3-5.9-6.5C172.9,4,172.7,4,172.6,4z M171.8,8.1c0.4,0,0.7,0.2,0.7,0.6l-0.1,9.5c0,0.4-0.3,0.6-0.7,0.6h-9.1
		c-0.4,0-0.7-0.2-0.7-0.6V8.8c0-0.4,0.3-0.7,0.7-0.7l0,0H171.8z"/>
	<path class="st2" d="M26.8,4.4v13.2h-8.9V4.4H0v44h17.8V35.2h8.8l0.1,13.2h17.8v-44L26.8,4.4z M40,44h-8.8v-8.9
		c-0.1-2.3-2-4.1-4.3-4.2h-9c-2.4,0-4.3,1.8-4.5,4.2v9H4.5V8.8h8.9V22h19.9c3.2,0,6.7,3.6,6.7,6.8V44z"/>
	<g>
		<path class="st3" d="M50,0.7c1.9,0,3.5,1.6,3.5,3.5S51.9,7.7,50,7.7s-3.5-1.6-3.5-3.5S48.1,0.7,50,0.7 M50,0.4
			c-2.1,0-3.8,1.7-3.8,3.8S47.9,8,50,8s3.8-1.7,3.8-3.8S52.1,0.4,50,0.4L50,0.4z"/>
		<path class="st3" d="M50,0.4c-2.1,0-3.8,1.7-3.8,3.8S47.9,8,50,8s3.8-1.7,3.8-3.8l0,0C53.8,2.1,52.1,0.4,50,0.4z M46.3,4.2
			c0-1.9,1.8-3.6,3.8-3.6c1.9,0,3.5,1.6,3.5,3.6c0.1,0.9-0.5,1.9-1.1,2.5l0,0c-0.1-0.1-0.2-0.2-0.2-0.3c0-0.1,0-0.3,0-0.4V5.3
			c0-0.2-0.1-0.5-0.2-0.7c-0.1-0.1-0.3-0.3-0.5-0.3C51.8,4.2,52,4,52.2,3.8c0.1-0.2,0.2-0.5,0.2-0.8c0-0.5-0.3-1-0.8-1.2
			c-0.3-0.1-0.7-0.2-1-0.2h-2.5v5.3h0.7V4.6h1.6c0.2,0,0.4,0,0.6,0.1c0.3,0.1,0.4,0.4,0.4,0.7v0.9c0,0.1,0,0.3,0,0.4s0,0.1,0,0.2
			h0.7h0.4l-0.4,0.4l-1.3,0.6h-1.4L48,7.3l-1-0.9l-0.6-1.7L46.3,4.2z M51.3,3.8C51.1,3.9,50.8,4,50.5,4h-1.6V2.2h1.7
			c0.2,0,0.4,0,0.6,0.1c0.3,0.1,0.4,0.4,0.4,0.8C51.6,3.3,51.5,3.6,51.3,3.8z"/>
	</g>
	<g>
		<path class="st1" d="M238.2,3.4c1.8,0,3.2,1.4,3.2,3.2s-1.4,3.2-3.2,3.2S235,8.4,235,6.6S236.4,3.4,238.2,3.4 M238.2,3.1
			c-1.9,0-3.5,1.6-3.5,3.5s1.6,3.5,3.5,3.5s3.5-1.6,3.5-3.5S240.1,3.1,238.2,3.1L238.2,3.1z"/>
		<path class="st1" d="M238.2,3.1c-1.9,0-3.5,1.6-3.5,3.5s1.6,3.5,3.5,3.5s3.5-1.6,3.5-3.5l0,0C241.7,4.7,240.1,3.1,238.2,3.1z
			 M234.8,6.6c0-1.8,1.7-3.3,3.5-3.3c1.8,0,3.2,1.5,3.2,3.3c0.1,0.8-0.5,1.8-1,2.3l0,0c-0.1-0.1-0.2-0.2-0.2-0.3c0-0.1,0-0.3,0-0.4
			V7.6c0-0.2-0.1-0.5-0.2-0.6c-0.1-0.1-0.3-0.3-0.5-0.3c0.2-0.1,0.4-0.3,0.6-0.5c0.1-0.2,0.2-0.5,0.2-0.7c0-0.5-0.3-0.9-0.7-1.1
			c-0.3-0.1-0.6-0.2-0.9-0.2h-2.3v4.9h0.6V7h1.5c0.2,0,0.4,0,0.6,0.1c0.3,0.1,0.4,0.4,0.4,0.6v0.8c0,0.1,0,0.3,0,0.4s0,0.1,0,0.2
			h0.6h0.4l-0.4,0.4l-1.2,0.5h-1.3l-1.3-0.5l-0.9-0.8l-0.6-1.6L234.8,6.6z M239.4,6.2c-0.2,0.1-0.5,0.2-0.7,0.2h-1.5V4.8h1.6
			c0.2,0,0.4,0,0.6,0.1c0.3,0.1,0.4,0.4,0.4,0.7C239.7,5.8,239.6,6,239.4,6.2z"/>
	</g>
</g>
</svg>
